<svg xmlns="http://www.w3.org/2000/svg" viewBox="0 0 32 32" fill="currentColor"><circle cx="16" cy="16" r="16" fill="#22223b"/><path fill="#fff" d="M16 7.5c-4.7 0-8.5 3.8-8.5 8.5 0 3.8 2.5 7 6 8.1.4.1.5-.2.5-.4v-1.5c-2.4.5-2.9-1.1-2.9-1.1-.4-1-1-1.3-1-1.3-.8-.6.1-.6.1-.6.9.1 1.4.9 1.4.9.8 1.4 2.1 1 2.6.8.1-.6.3-1 .5-1.2-1.9-.2-3.9-1-3.9-4.2 0-.9.3-1.6.8-2.2-.1-.2-.3-1 .1-2.1 0 0 .7-.2 2.2.8.7-.2 1.5-.3 2.2-.3s1.5.1 2.2.3c1.5-1 2.2-.8 2.2-.8.4 1.1.2 1.9.1 2.1.5.6.8 1.3.8 2.2 0 3.2-2 4-3.9 4.2.3.3.6.8.6 1.5v2.2c0 .2.1.5.5.4 3.5-1.1 6-4.3 6-8.1 0-4.7-3.8-8.5-8.5-8.5z"/></svg>
