<svg xmlns="http://www.w3.org/2000/svg" viewBox="0 0 32 32" fill="currentColor"><circle cx="16" cy="16" r="16" fill="#25d366"/><path fill="#fff" d="M24.5 19.7c-.4-.2-2.3-1.1-2.6-1.2-.3-.1-.5-.2-.7.2-.2.4-.8 1.2-1 1.4-.2.2-.4.3-.8.1-.4-.2-1.7-.6-3.2-2-1.2-1.1-2-2.4-2.2-2.8-.2-.4 0-.6.2-.8.2-.2.4-.4.6-.6.2-.2.2-.4.3-.6.1-.2 0-.5 0-.7 0-.2-.7-1.7-1-2.3-.3-.6-.5-.5-.7-.5-.2 0-.4 0-.6 0-.2 0-.6.1-.9.4-.3.3-1.2 1.2-1.2 2.9 0 1.7 1.2 3.3 1.4 3.5.2.2 2.3 3.6 5.7 4.9.8.3 1.4.5 1.9.6.8.2 1.5.2 2.1.1.6-.1 1.8-.7 2-1.4.2-.7.2-1.3.1-1.4-.1-.1-.4-.2-.8-.4z"/></svg>
